<?xml version="1.0" standalone="no"?>
<!DOCTYPE svg PUBLIC "-//W3C//DTD SVG 20010904//EN"
 "http://www.w3.org/TR/2001/REC-SVG-20010904/DTD/svg10.dtd">
<svg version="1.0" xmlns="http://www.w3.org/2000/svg"
 width="260.000000pt" height="260.000000pt" viewBox="0 0 260.000000 260.000000"
 preserveAspectRatio="xMidYMid meet">
<metadata>
Created by potrace 1.11, written by Peter Selinger 2001-2013
</metadata>
<g transform="translate(0.000000,260.000000) scale(0.100000,-0.100000)"
fill="#000000" stroke="none">
<path d="M282 2318 l-282 -282 362 -363 c200 -200 365 -365 366 -367 2 -3
-161 -169 -362 -370 l-366 -366 281 -281 282 -281 366 366 366 366 368 -367
368 -367 282 282 282 282 -368 367 -367 368 367 367 367 367 -282 280 -281
281 -366 -366 c-201 -202 -369 -363 -373 -360 -4 4 -169 168 -367 366 l-360
360 -283 -282z"/>
</g>
</svg>
